<svg xmlns="http://www.w3.org/2000/svg" fill="none" viewBox="0 0 64 64" height="64" width="64">
<path fill="#C09671" d="M58.6505 32.2176C57.9019 31.5093 57.0789 30.836 56.1988 30.2081C57.1044 27.8879 57.5648 25.4375 57.5648 22.9113C57.5648 17.2254 55.1919 11.8748 51.0255 8.08651C51.2114 7.73001 51.2864 7.32613 51.2382 6.91663C51.1748 6.37776 50.9057 5.89901 50.4808 5.56876C49.6213 4.89988 48.663 4.28576 47.6328 3.74326C41.4525 0.489634 34.073 0.489509 27.8932 3.74338C26.8627 4.28576 25.9044 4.90001 25.0452 5.56863C24.6202 5.89926 24.3512 6.37788 24.2878 6.91663C24.2395 7.32613 24.3145 7.72988 24.5002 8.08601C22.4655 9.94076 20.8125 12.2208 19.6935 14.732C19.4733 15.2261 19.6955 15.8054 20.1897 16.0255C20.3193 16.0833 20.4545 16.1105 20.5879 16.1105C20.9628 16.1105 21.3207 15.894 21.4832 15.5294C22.4704 13.3138 23.9178 11.2966 25.6984 9.64376L26.3968 10.5156C22.9688 13.7093 21.0208 18.1738 21.0208 22.9113C21.0208 24.7213 21.3023 26.4923 21.8567 28.1885C21.522 28.3595 21.1937 28.5378 20.8695 28.7201C20.2395 26.8581 19.9197 24.9094 19.9197 22.9111C19.9197 21.8574 20.0105 20.7998 20.19 19.7679C20.2827 19.235 19.9257 18.7276 19.3927 18.6351C18.8599 18.5415 18.3524 18.8994 18.2599 19.4324C18.0613 20.5748 17.9605 21.7451 17.9605 22.9111C17.9605 25.2738 18.3645 27.5753 19.1599 29.765C15.7742 32.0196 13.3129 34.8119 11.9438 37.9394C11.4173 37.1303 10.9932 36.1331 10.6782 34.9564C9.97441 32.3271 8.76541 30.1158 7.08478 28.3836C6.90028 28.1935 6.64666 28.0863 6.38166 28.0863H0.979658C0.543283 28.0863 0.159533 28.3749 0.0385334 28.7943C-0.0825916 29.2135 0.0885334 29.6621 0.457783 29.8948C3.82141 32.0125 5.38103 36.6096 5.22616 43.9493C5.03228 53.1399 9.60991 54.3175 13.0684 55.0749C14.1508 56.7588 15.6369 58.1158 17.5999 59.2141C17.7513 59.2988 17.9153 59.339 18.0773 59.339C18.4204 59.339 18.7535 59.1584 18.933 58.8376C19.1972 58.3656 19.0287 57.7686 18.5565 57.5045C16.7612 56.5 15.4425 55.2575 14.5242 53.7046C12.8213 50.8359 12.6788 47.1761 12.6788 43.6733C12.6788 42.4835 12.8582 41.295 13.2118 40.1413C14.2819 36.6495 17.0044 33.3988 20.8775 30.9883C21.702 30.4751 22.5812 29.997 23.4888 29.5683C24.266 29.2023 25.075 28.8681 25.8985 28.568C26.2584 28.7931 26.6819 28.9255 27.1368 28.9255H48.3897C48.7087 28.9255 49.0127 28.861 49.29 28.745C50.1829 29.0878 51.0534 29.4696 51.8812 29.8885C52.7813 30.3424 53.6455 30.8443 54.4504 31.381C55.491 32.0734 56.4512 32.8338 57.3044 33.6411C57.4937 33.8204 57.7358 33.9091 57.9774 33.9091C58.237 33.9091 58.4964 33.8065 58.6892 33.6028C59.0608 33.2095 59.0435 32.5896 58.6505 32.2176ZM7.18478 43.9906C7.27628 39.6601 6.80791 36.256 5.75328 33.5839C5.20453 32.1939 4.50503 31.021 3.63878 30.0454H5.95703C7.25903 31.4903 8.20966 33.3106 8.78566 35.463C9.30841 37.4151 10.1119 38.9845 11.1772 40.1394C10.874 41.299 10.7194 42.4848 10.7194 43.6734C10.7194 46.7368 10.8273 49.9226 11.9128 52.7753C9.22478 51.9898 7.04978 50.3841 7.18478 43.9906ZM26.2465 7.19451C26.233 7.17763 26.2322 7.15876 26.2337 7.14563C26.2362 7.12426 26.2452 7.11726 26.2482 7.11476C27.0168 6.51676 27.8774 5.96563 28.8059 5.47676C31.6105 4.00001 34.6862 3.26213 37.763 3.26213C40.839 3.26213 43.916 4.00051 46.72 5.47663C47.6483 5.96551 48.5089 6.51663 49.2779 7.11501C49.2808 7.11738 49.2899 7.12426 49.2923 7.14538C49.2939 7.15838 49.2928 7.17738 49.2794 7.19426C49.2793 7.19426 49.2793 7.19426 49.2793 7.19438L47.0269 10.0064C47.0265 10.0069 47.0262 10.0073 47.0258 10.0076C47.025 10.0086 47.0243 10.0098 47.0235 10.0106L46.6454 10.4826C46.6343 10.4966 46.6202 10.4996 46.605 10.4906C44.9119 9.45201 41.5119 7.70963 37.7632 7.70963C34.0144 7.70963 30.6145 9.45201 28.9213 10.4906C28.9067 10.4996 28.892 10.4968 28.8809 10.4828L28.5058 10.0145C28.5035 10.0118 28.5018 10.0089 28.4995 10.0061C28.4985 10.0049 28.4972 10.0038 28.4962 10.0025L26.2465 7.19451ZM48.7734 26.582C48.7734 26.7938 48.6012 26.966 48.3894 26.966H27.1365C26.9248 26.966 26.7525 26.7938 26.7525 26.582V25.8355C26.7525 25.6238 26.9248 25.4516 27.1365 25.4516H27.2539H48.2719H48.3893C48.601 25.4516 48.7733 25.6238 48.7733 25.8355L48.7734 26.582ZM37.3527 22.3289C40.0385 22.3289 42.329 22.8729 44.0664 23.4924H30.9392C32.4935 22.8761 34.6378 22.3289 37.3527 22.3289ZM36.0015 18.5683C36.0015 17.575 36.7918 16.7668 37.7628 16.7668C38.7342 16.7668 39.5242 17.5749 39.5242 18.5683C39.5243 19.5618 38.734 20.3698 37.7628 20.3698C36.7917 20.3698 36.0015 19.5616 36.0015 18.5683ZM51.7775 27.6665C51.4082 27.4969 51.0328 27.3343 50.6525 27.178C50.7028 26.9873 50.7323 26.7881 50.7323 26.5819V25.8354C50.7323 24.6106 49.7872 23.604 48.5883 23.5024C47.75 22.953 44.9719 21.3101 40.8594 20.6496C41.2532 20.0531 41.4832 19.3374 41.4832 18.568C41.4832 16.4943 39.814 14.8073 37.7625 14.8073C35.711 14.8073 34.042 16.4943 34.042 18.568C34.042 19.2945 34.2475 19.973 34.6017 20.5486C30.3244 21.1123 27.723 22.8604 26.8889 23.5055C25.7127 23.6295 24.7928 24.6268 24.7928 25.8353V26.5818C24.7928 26.683 24.8014 26.7821 24.8139 26.8801C24.42 27.0301 24.0304 27.188 23.6453 27.3525C23.203 25.922 22.9793 24.4324 22.9793 22.9109C22.9795 18.7534 24.6755 14.8345 27.6622 12.0156C28.3048 12.5294 29.2195 12.6059 29.9453 12.1604C31.1667 11.4114 34.373 9.66876 37.7625 9.66876C41.1522 9.66876 44.3587 11.4114 45.5798 12.1604C45.9018 12.358 46.2609 12.4531 46.6172 12.4531C47.0638 12.4531 47.5052 12.3026 47.8625 12.0171C50.8489 14.8349 52.5445 18.7533 52.5445 22.911C52.5449 24.5441 52.2869 26.1391 51.7775 27.6665ZM54.5194 29.11C54.2004 28.9184 53.8769 28.7309 53.5462 28.5505C54.182 26.7434 54.5044 24.8505 54.5044 22.9111C54.5044 18.1733 52.5564 13.7091 49.1284 10.5166L49.8275 9.64388C53.5113 13.0544 55.6054 17.835 55.6054 22.9111C55.6055 25.0524 55.2398 27.1319 54.5194 29.11Z"></path>
<path fill="#C09671" d="M61.8015 36.0772C61.5205 35.615 60.9181 35.4682 60.4555 35.7491C59.9933 36.0301 59.8464 36.6327 60.1274 37.095C61.3963 39.1825 62.0398 41.3957 62.0398 43.6734C62.0398 48.9931 61.4336 52.864 58.4168 55.7211C54.8523 59.0967 47.964 60.7376 37.3586 60.7376C31.0239 60.7376 26.1236 60.1934 22.3775 59.0737C21.8598 58.9186 21.3134 59.2134 21.1585 59.7317C21.0035 60.2501 21.2981 60.7959 21.8165 60.9507C25.7473 62.1256 30.831 62.6967 37.3586 62.6967C48.6438 62.6967 55.7632 60.9321 59.764 57.1434C63.6717 53.4431 63.9991 48.2502 63.9991 43.6735C63.9991 41.0316 63.2598 38.4759 61.8015 36.0772Z"></path>
</svg>
