<svg xmlns="http://www.w3.org/2000/svg" fill="none" viewBox="0 0 64 64" height="64" width="64">
<g clip-path="url(#clip0_969_786)">
<path fill="#C09671" d="M63.8606 22.2655C63.5776 21.5823 62.9169 21.1408 62.1773 21.1408H58.9602L59.2988 18.2816L60.4919 17.0885C60.9905 16.5899 61.1383 15.8468 60.8685 15.1953C60.5987 14.5438 59.9687 14.1229 59.2635 14.1229H55.9545L56.3123 11.1008L57.3443 10.0689C57.8171 9.59609 57.9573 8.89125 57.7013 8.27354C57.4454 7.65582 56.8481 7.25656 56.1794 7.25656H50.1571C49.6356 7.25656 49.2128 7.67937 49.2128 8.20089C49.2128 8.7224 49.6356 9.14521 50.1571 9.14521H55.5971L54.7454 9.99699C54.5954 10.1469 54.5002 10.3431 54.4753 10.5536L54.0526 14.1229H9.94763L9.52508 10.5538C9.50015 10.3431 9.40496 10.1471 9.255 9.99712L8.40322 9.14534H46.1326C46.6541 9.14534 47.0769 8.72253 47.0769 8.20101C47.0769 7.67949 46.6541 7.25669 46.1326 7.25669H7.82101C7.15231 7.25669 6.55486 7.65582 6.29901 8.27366C6.04316 8.8915 6.1833 9.59622 6.65609 10.069L7.68805 11.101L8.04589 14.1231H4.73672C4.03163 14.1231 3.40157 14.544 3.13175 15.1954C2.86193 15.8469 3.00974 16.59 3.50835 17.0886L4.70147 18.2817L5.04004 21.1409H1.82292C1.08332 21.1409 0.422673 21.5823 0.139627 22.2657C-0.143418 22.949 0.011577 23.7282 0.534607 24.2511L1.87995 25.5965L3.15076 36.3303C4.07507 44.1365 9.82852 50.5371 17.4833 52.2904V54.6494C17.4833 55.8041 18.4228 56.7436 19.5775 56.7436H44.4225C45.5772 56.7436 46.5166 55.8041 46.5166 54.6494V52.2904C50.2256 51.4412 53.5405 49.5073 56.1095 46.6928C56.461 46.3076 56.4338 45.7103 56.0487 45.3587C55.6635 45.0071 55.0662 45.0343 54.7145 45.4195C52.3844 47.9722 49.3713 49.7188 46.0008 50.4705L45.4681 50.5893H38.402C37.8805 50.5893 37.4577 51.0121 37.4577 51.5337C37.4577 52.0552 37.8805 52.478 38.402 52.478H44.6279V54.6493C44.6279 54.7626 44.5357 54.8548 44.4224 54.8548H19.5776C19.4643 54.8548 19.3721 54.7626 19.3721 54.6493V52.478H33.5899C34.1114 52.478 34.5342 52.0552 34.5342 51.5337C34.5342 51.0121 34.1114 50.5893 33.5899 50.5893H18.5319L17.9992 50.4705C11.0741 48.9259 5.86072 43.1542 5.02644 36.1081L3.71711 25.0491C3.69217 24.8385 3.59699 24.6425 3.44703 24.4925L1.98408 23.0295H10.663C11.1846 23.0295 11.6074 22.6067 11.6074 22.0852C11.6074 21.5637 11.1846 21.1409 10.663 21.1409H6.94178L6.53849 17.7345C6.51356 17.5239 6.4185 17.3278 6.26842 17.1779L5.10237 16.0118H58.8977L57.7317 17.1779C57.5817 17.3278 57.4865 17.524 57.4616 17.7345L57.0583 21.1409H14.6874C14.1659 21.1409 13.7431 21.5637 13.7431 22.0852C13.7431 22.6067 14.1659 23.0295 14.6874 23.0295H62.0163L60.5533 24.4925C60.4034 24.6425 60.3082 24.8386 60.2833 25.0491L58.9739 36.1081C58.7138 38.3047 58.0332 40.3963 56.9512 42.3245C56.696 42.7793 56.8578 43.3549 57.3125 43.6101C57.4587 43.6921 57.6174 43.7311 57.7739 43.7311C58.1043 43.7311 58.4251 43.5574 58.5982 43.2488C59.8025 41.1026 60.56 38.775 60.8495 36.3302L62.1203 25.5963L63.4656 24.251C63.9885 23.7281 64.1435 22.9487 63.8606 22.2655Z"></path>
</g>
<defs>
<clipPath id="clip0_969_786">
<rect fill="white" height="64" width="64"></rect>
</clipPath>
</defs>
</svg>
