<svg xmlns="http://www.w3.org/2000/svg" fill="none" viewBox="0 0 64 64" height="64" width="64">
<g clip-path="url(#clip0_969_761)">
<path fill="#C09671" d="M32 47.8478C42.5294 47.8478 51.0958 39.2815 51.0958 28.7521C51.0958 18.2227 42.5294 9.65646 32 9.65646C29.2259 9.65646 26.5504 10.2385 24.0477 11.3861C23.577 11.602 23.3704 12.1587 23.5862 12.6294C23.8022 13.1001 24.3589 13.3067 24.8295 13.0909C27.0852 12.0564 29.4976 11.5319 32 11.5319C41.4953 11.5319 49.2203 19.2569 49.2203 28.7521C49.2203 38.2474 41.4953 45.9724 32 45.9724C22.5047 45.9724 14.7797 38.2474 14.7797 28.7521C14.7797 23.4699 17.1545 18.5531 21.2951 15.2625C21.7006 14.9403 21.7681 14.3504 21.4459 13.9449C21.1237 13.5395 20.5338 13.4721 20.1283 13.7942C15.5374 17.4426 12.9043 22.8945 12.9043 28.752C12.9043 39.2815 21.4706 47.8478 32 47.8478Z"></path>
<path fill="#C09671" d="M25.8004 5.85033C26.4369 5.7183 26.7599 4.95987 26.3967 4.41C26.1871 4.09205 25.8011 3.93927 25.434 4.01116C24.8825 4.11918 24.5287 4.77733 24.747 5.2922C24.9148 5.68779 25.3716 5.93935 25.8004 5.85033Z"></path>
<path fill="#C09671" d="M15.2254 11.9767C15.626 11.564 15.5706 10.8554 15.0829 10.5339C14.7698 10.3276 14.3549 10.3275 14.0414 10.5339C13.8375 10.6682 13.6913 10.8919 13.6425 11.1303C13.6083 11.2978 13.6314 11.5088 13.7032 11.6699C13.9647 12.2564 14.7629 12.4534 15.2254 11.9767Z"></path>
<path fill="#C09671" d="M49.9566 45.4154C49.5963 45.1627 49.0868 45.2161 48.7758 45.527C48.2513 46.0515 48.5336 46.9592 49.2559 47.1099C49.8188 47.2273 50.3762 46.7658 50.3762 46.1909C50.3762 45.8875 50.2064 45.5906 49.9566 45.4154Z"></path>
<path fill="#C09671" d="M7.66521 23.138C8.01441 23.3633 8.50477 23.3688 8.84185 23.0318C9.20993 22.6637 9.20743 22.0722 8.84185 21.7065C8.6243 21.4889 8.30048 21.3876 7.99541 21.4502C7.56618 21.5305 7.24023 21.9341 7.24023 22.369C7.24023 22.7069 7.41715 22.978 7.66521 23.138Z"></path>
<path fill="#C09671" d="M55.8199 34.1968C55.3725 34.1968 54.9912 34.5194 54.9009 34.952C54.7835 35.5146 55.2538 36.0722 55.8199 36.0722C56.2642 36.0722 56.6511 35.7452 56.7401 35.3182C56.7797 35.1278 56.757 34.9406 56.6873 34.7752C56.5467 34.4414 56.2147 34.1968 55.8199 34.1968Z"></path>
<path fill="#C09671" d="M8.84162 34.4719C8.5268 34.1569 8.02581 34.1129 7.6576 34.3556C7.34753 34.56 7.18236 34.9519 7.25876 35.3183C7.34865 35.7492 7.73349 36.0722 8.17897 36.0722C8.84399 36.0722 9.27497 35.384 9.03916 34.7776C8.99503 34.6642 8.92914 34.5594 8.84162 34.4719Z"></path>
<path fill="#C09671" d="M55.8205 23.3068C56.332 23.3068 56.7582 22.8797 56.7582 22.3691C56.7582 21.8366 56.3515 21.4314 55.8205 21.4314C55.3185 21.4314 54.8828 21.8684 54.8828 22.3691C54.8828 22.8795 55.3068 23.3068 55.8205 23.3068Z"></path>
<path fill="#C09671" d="M14.0406 45.4106C13.8053 45.5655 13.623 45.903 13.623 46.1908C13.623 46.7175 14.0428 47.1285 14.562 47.1285C15.2274 47.1285 15.6736 46.428 15.4272 45.832C15.2072 45.2997 14.5244 45.0923 14.0406 45.4106Z"></path>
<path fill="#C09671" d="M48.5752 11.6717C48.7491 12.0666 49.1885 12.3234 49.6211 12.2332C50.0436 12.145 50.3749 11.7503 50.3749 11.3142C50.3749 10.7363 49.821 10.2787 49.2546 10.3953C48.8154 10.4857 48.4825 10.9062 48.5007 11.3554C48.5055 11.4656 48.5317 11.5725 48.5752 11.6717Z"></path>
<path fill="#C09671" d="M37.8635 5.70957C38.0128 5.81009 38.1917 5.86923 38.383 5.86923C38.8861 5.86923 39.3207 5.4315 39.3207 4.93151C39.3207 4.48841 38.9993 4.09595 38.5668 4.0113C37.9991 3.90015 37.4453 4.35463 37.4453 4.93151C37.4453 5.25309 37.6124 5.54028 37.8635 5.70957Z"></path>
<path fill="#C09671" d="M62.4229 52.422C62.1691 52.075 61.7609 51.8677 61.331 51.8677H49.1002C52.2084 49.5638 54.8396 46.6448 56.8066 43.2973C59.3877 38.9045 60.752 33.8747 60.752 28.7519C60.752 21.0719 57.7613 13.8518 52.3307 8.42117C46.9001 2.99056 39.6798 0 31.9998 0C24.3198 0 17.0996 2.99068 11.669 8.4213C6.23842 13.8519 3.24773 21.0721 3.24773 28.7521C3.24773 33.8747 4.61192 38.9043 7.19289 43.297C9.15984 46.6447 11.7912 49.5638 14.8995 51.8678H2.66873C2.23888 51.8678 1.83054 52.075 1.57685 52.4221C1.32304 52.7692 1.24928 53.221 1.37968 53.6309V53.631L2.26976 56.428C2.87615 58.3335 4.62692 59.6136 6.62651 59.6136H9.92626V60.5848C9.92626 62.468 11.4584 64.0001 13.3415 64.0001H38.467C38.9849 64.0001 39.4047 63.5803 39.4047 63.0624C39.4047 62.5445 38.9849 62.1247 38.467 62.1247H13.3414C12.4923 62.1247 11.8016 61.4339 11.8016 60.5848V59.6136H52.1982V60.5848C52.1982 61.4339 51.5074 62.1247 50.6583 62.1247H42.8023C42.2844 62.1247 41.8646 62.5445 41.8646 63.0624C41.8646 63.5803 42.2844 64.0001 42.8023 64.0001H50.6583C52.5415 64.0001 54.0736 62.468 54.0736 60.5848V59.6136H57.3733C59.3729 59.6136 61.1237 58.3335 61.7301 56.428L62.6202 53.6309C62.7505 53.2209 62.6767 52.7692 62.4229 52.422ZM8.80988 42.3469C6.39795 38.242 5.12316 33.5409 5.12316 28.7521C5.12316 21.5731 7.9188 14.8238 12.9951 9.74748C18.0715 4.67107 24.8208 1.87543 31.9998 1.87543C39.1788 1.87543 45.9281 4.67107 51.0045 9.74735C56.0808 14.8238 58.8764 21.5729 58.8764 28.7519C58.8764 33.541 57.6015 38.2421 55.1895 42.3472C52.8899 46.2607 49.6193 49.5479 45.7201 51.8676H35.7208L37.7602 50.3844C37.7801 50.3698 37.8046 50.3634 37.8295 50.3659L43.4827 50.9656C44.34 51.0574 45.1487 50.5887 45.4975 49.8013L47.8 44.6034C47.8102 44.5806 47.8283 44.5624 47.8512 44.5523L53.0491 42.2497C53.8364 41.901 54.3045 41.0913 54.2135 40.2349L53.6137 34.5816C53.6111 34.5569 53.6177 34.5323 53.6324 34.5121L56.9766 29.914C57.4821 29.2189 57.4821 28.285 56.9766 27.5899L53.6325 22.9918C53.6179 22.9716 53.6112 22.9469 53.6139 22.9221L54.2136 17.2689C54.3045 16.4126 53.8365 15.6029 53.0492 15.2541L47.8512 12.9515C47.8284 12.9413 47.8103 12.9232 47.8003 12.9006L45.4976 7.70238C45.1488 6.91521 44.3387 6.44697 43.4829 6.53812L37.8296 7.13788C37.805 7.14051 37.7801 7.13388 37.7601 7.11925L33.1618 3.77499C32.4669 3.26962 31.5329 3.26962 30.8379 3.77499L26.2395 7.11938C26.2196 7.13388 26.1952 7.14051 26.1702 7.13788L20.5171 6.53812C19.6601 6.44747 18.851 6.91521 18.5022 7.70251L16.1997 12.9003C16.1896 12.9232 16.1714 12.9413 16.1486 12.9515L10.9506 15.2541C10.1633 15.6028 9.69521 16.4125 9.78623 17.2688L10.386 22.9221C10.3886 22.9469 10.382 22.9716 10.3674 22.9916L7.02297 27.5901C6.51748 28.2851 6.51748 29.219 7.02297 29.9141L10.3671 34.5123C10.3817 34.5324 10.3884 34.5571 10.3857 34.5819L9.78598 40.2351C9.69508 41.0914 10.1631 41.9011 10.9504 42.2499L16.1484 44.5526C16.1712 44.5627 16.1893 44.5808 16.1993 44.6034L18.502 49.8016C18.8508 50.5888 19.6604 51.057 20.5167 50.9659L26.17 50.3661C26.1946 50.3636 26.2195 50.3701 26.2396 50.3848L28.2788 51.8678H18.2795C14.3803 49.5481 11.1094 46.2607 8.80988 42.3469ZM11.884 33.4093L8.53969 28.811C8.51406 28.7757 8.51406 28.7284 8.53969 28.6932L11.884 24.0949C12.1721 23.6985 12.3024 23.2119 12.2508 22.7246L11.651 17.0711C11.6464 17.0278 11.6702 16.9866 11.71 16.969L16.9079 14.6664C17.3575 14.4673 17.7149 14.11 17.9142 13.6601L20.2167 8.46218C20.2344 8.4223 20.2755 8.39904 20.319 8.40304L25.9723 9.00281C26.4599 9.05469 26.9466 8.92416 27.3426 8.63597L31.9408 5.29183C31.9762 5.2662 32.0236 5.26608 32.0588 5.29183L36.657 8.6361C37.0533 8.92429 37.5399 9.05469 38.0273 9.00293L43.6807 8.40317C43.7241 8.39917 43.7652 8.4223 43.7829 8.46218L46.0855 13.6604C46.2848 14.1101 46.6422 14.4674 47.0916 14.6664L52.2896 16.969C52.3294 16.9866 52.3532 17.0278 52.3486 17.0711L51.7488 22.7244C51.6971 23.2118 51.8273 23.6985 52.1156 24.0949L55.4599 28.6932C55.4855 28.7284 55.4855 28.7757 55.4599 28.811L52.1156 33.4091C51.8273 33.8055 51.6971 34.2921 51.7488 34.7796L52.3486 40.433C52.3532 40.4764 52.3294 40.5174 52.2896 40.5351L47.0918 42.8378C46.6421 43.0368 46.2847 43.3942 46.0854 43.844L43.7829 49.042C43.7651 49.0818 43.724 49.1057 43.6806 49.1011L38.0273 48.5013C37.5394 48.4494 37.053 48.58 36.657 48.8682L32.5323 51.868H31.4673L27.3426 48.8682C27.003 48.6212 26.5973 48.4903 26.1815 48.4903C26.112 48.4903 26.0421 48.494 25.9722 48.5015L20.3188 49.1012C20.2764 49.1061 20.2342 49.0821 20.2166 49.0422L17.914 43.844C17.7147 43.3943 17.3573 43.037 16.9079 42.838L11.71 40.5351C11.6702 40.5175 11.6464 40.4764 11.651 40.433L12.2508 34.7797C12.3024 34.2923 12.1721 33.8056 11.884 33.4093ZM59.9429 55.8591C59.5854 56.983 58.5526 57.7381 57.3733 57.7381H6.62638C5.44711 57.7381 4.4145 56.983 4.05679 55.8591L3.38352 53.7433H60.6162L59.9429 55.8591Z"></path>
</g>
<defs>
<clipPath id="clip0_969_761">
<rect fill="white" height="64" width="64"></rect>
</clipPath>
</defs>
</svg>
