<svg xmlns="http://www.w3.org/2000/svg" fill="none" viewBox="0 0 64 64" height="64" width="64">
<g clip-path="url(#clip0_969_776)">
<path fill="#C09671" d="M60.8203 37.3707C60.8206 37.3461 60.8198 37.3215 60.8182 37.2969C60.4936 26.7003 54.6065 17.0172 45.2898 11.8646L40.6694 9.30943C39.5615 8.69666 38.8732 7.52963 38.8732 6.26358V1.96007C38.8732 0.879279 37.9939 0 36.9131 0H27.0581C25.9773 0 25.098 0.879279 25.098 1.96007V6.26358C25.098 7.5295 24.4097 8.69666 23.3018 9.30943C19.84 11.2241 16.3283 12.9961 13.3481 15.6213C9.90562 18.6546 7.20841 22.5037 5.45835 26.7409C2.16249 34.7205 2.43375 43.902 6.30575 51.6652C6.53689 52.1286 7.09991 52.3169 7.56317 52.0857C8.02656 51.8546 8.21469 51.2916 7.98369 50.8283C6.12575 47.1034 5.10546 42.9538 5.01996 38.7915C5.61373 38.9909 6.34438 39.1374 7.34741 39.1374C9.10285 39.1374 10.024 38.6885 10.8368 38.2925C11.5588 37.9408 12.1823 37.6369 13.5061 37.6369C14.3758 37.6369 14.9365 37.7655 15.4154 37.9491C15.6803 46.9512 23.0858 54.1928 32.151 54.1928C41.2543 54.1928 48.6838 46.8901 48.8894 37.8353C49.2833 37.7195 49.7752 37.6369 50.4617 37.6369C51.7854 37.6369 52.409 37.9406 53.1311 38.2925C53.944 38.6885 54.8655 39.1376 56.6217 39.1376C57.6262 39.1376 58.3575 38.9907 58.9516 38.7909C58.8271 44.8655 56.7144 50.8176 52.9706 55.6097C49.7357 59.7504 44.8668 62.1251 39.6125 62.1251H24.3595C19.1051 62.1251 14.2363 59.7502 11.0013 55.6096C10.7107 55.2376 10.4256 54.8533 10.1541 54.4672C9.85612 54.0435 9.27135 53.9417 8.84796 54.2396C8.42445 54.5374 8.32245 55.1222 8.62033 55.5457C8.90997 55.9576 9.21398 56.3675 9.52386 56.7641C11.2744 59.005 13.5506 60.8481 16.1065 62.0948C18.6623 63.3415 21.516 64.0003 24.3596 64.0003H39.6126C42.4562 64.0003 45.3101 63.3414 47.8658 62.0948C50.4215 60.8483 52.6977 59.005 54.4484 56.7641C58.8491 51.1302 60.7488 44.4036 60.8203 37.3707ZM53.9522 36.6068C53.1393 36.2108 52.2178 35.7618 50.4616 35.7618C49.8055 35.7618 49.2718 35.8241 48.8242 35.9186C48.4925 32.2802 46.9844 28.853 44.4939 26.1371C44.1438 25.7554 43.5509 25.7297 43.1692 26.0797C42.7876 26.4296 42.762 27.0228 43.1119 27.4044C51.6914 36.7611 44.8218 52.3177 32.1509 52.3177C28.154 52.3177 24.2704 50.6671 21.4871 47.8003C12.5708 38.6168 19.3196 22.582 32.151 22.5821C34.9358 22.5821 37.6505 23.3564 40.0016 24.8213C40.4413 25.0951 41.0193 24.9607 41.2932 24.5214C41.5669 24.0819 41.4327 23.5037 40.9933 23.2299C38.3443 21.5795 35.2867 20.7071 32.151 20.7071C23.4078 20.7071 16.2083 27.4435 15.4704 35.9987C14.9462 35.8581 14.3128 35.7618 13.5062 35.7618C11.2487 35.7618 9.54861 37.2624 7.34754 37.2624C6.25475 37.2624 5.63911 37.0551 5.05071 36.7849C5.54435 27.0715 11.0197 18.2447 19.5892 13.5053L24.2096 10.9501C25.9143 10.0073 26.9733 8.21152 26.9733 6.26346V1.96007C26.9733 1.91319 27.0114 1.87506 27.0583 1.87506H36.9134C36.9603 1.87506 36.9984 1.91319 36.9984 1.96007V6.26358C36.9984 8.21165 38.0574 10.0075 39.7621 10.9502L44.3825 13.5054C52.9518 18.2446 58.427 27.0709 58.921 36.7838C58.3321 37.0546 57.7165 37.2624 56.6217 37.2624C55.2978 37.2624 54.6741 36.9586 53.9522 36.6068Z"></path>
</g>
<defs>
<clipPath id="clip0_969_776">
<rect fill="white" height="64" width="64"></rect>
</clipPath>
</defs>
</svg>
