<svg width="157" height="42" viewBox="0 0 157 42" fill="none" xmlns="http://www.w3.org/2000/svg">
<path d="M66.9512 19.9414C66.4824 19.9297 65.8965 19.9238 65.1934 19.9238C64.4902 19.9121 63.7227 19.9004 62.8906 19.8887C62.0703 19.877 61.209 19.8711 60.3066 19.8711C59.416 19.8594 58.543 19.8535 57.6875 19.8535C56.832 19.8418 56.0176 19.8418 55.2441 19.8535C54.4707 19.8652 53.7969 19.8828 53.2227 19.9062V25.127C53.2227 26.123 53.2344 26.9961 53.2578 27.7461C53.293 28.4844 53.3281 29.123 53.3633 29.6621C53.4102 30.2012 53.4629 30.6523 53.5215 31.0156C53.5918 31.3789 53.6621 31.6836 53.7324 31.9297V32H49.5137V31.9297C49.584 31.6836 49.6484 31.3789 49.707 31.0156C49.7773 30.6523 49.8359 30.2012 49.8828 29.6621C49.9297 29.123 49.9648 28.4844 49.9883 27.7461C50.0117 26.9961 50.0234 26.123 50.0234 25.127V13.6836C50.0234 12.6875 50.0117 11.8203 49.9883 11.082C49.9648 10.332 49.9297 9.6875 49.8828 9.14844C49.8359 8.59766 49.7773 8.14063 49.707 7.77734C49.6484 7.41406 49.584 7.10938 49.5137 6.86328V6.79297H53.7324V6.86328C53.6621 7.10938 53.5918 7.41406 53.5215 7.77734C53.4629 8.14063 53.4102 8.59766 53.3633 9.14844C53.3281 9.6875 53.293 10.332 53.2578 11.082C53.2344 11.8203 53.2227 12.6875 53.2227 13.6836V18.1836C53.832 18.207 54.5234 18.2246 55.2969 18.2363C56.0703 18.2363 56.8789 18.2363 57.7227 18.2363C58.5664 18.2246 59.4219 18.2129 60.2891 18.2012C61.168 18.1895 62.0117 18.1777 62.8203 18.166C63.6406 18.1426 64.4023 18.1191 65.1055 18.0957C65.8203 18.0723 66.4355 18.0488 66.9512 18.0254V13.6836C66.9512 12.6875 66.9336 11.8203 66.8984 11.082C66.875 10.332 66.8398 9.6875 66.793 9.14844C66.7578 8.59766 66.7051 8.14063 66.6348 7.77734C66.5762 7.41406 66.5117 7.10938 66.4414 6.86328V6.79297H70.6602V6.86328C70.5898 7.10938 70.5195 7.41406 70.4492 7.77734C70.3906 8.14063 70.3379 8.59766 70.291 9.14844C70.2441 9.6875 70.209 10.332 70.1855 11.082C70.1621 11.8203 70.1504 12.6875 70.1504 13.6836V25.127C70.1504 26.123 70.1621 26.9961 70.1855 27.7461C70.209 28.4844 70.2441 29.123 70.291 29.6621C70.3379 30.2012 70.3906 30.6523 70.4492 31.0156C70.5195 31.3789 70.5898 31.6836 70.6602 31.9297V32H66.4414V31.9297C66.5117 31.6836 66.5762 31.3789 66.6348 31.0156C66.7051 30.6523 66.7578 30.2012 66.793 29.6621C66.8398 29.123 66.875 28.4844 66.8984 27.7461C66.9336 26.9961 66.9512 26.123 66.9512 25.127V19.9414ZM74.0619 22.9648C74.0619 21.6406 74.308 20.416 74.8002 19.291C75.2923 18.1543 75.9662 17.1699 76.8216 16.3379C77.6888 15.5059 78.7084 14.8555 79.8802 14.3867C81.0521 13.918 82.3119 13.6836 83.6595 13.6836C84.9837 13.6836 86.2259 13.9063 87.3861 14.3516C88.558 14.7852 89.5775 15.4062 90.4447 16.2148C91.3119 17.0234 91.9916 18.0078 92.4837 19.168C92.9877 20.3281 93.2396 21.6289 93.2396 23.0703C93.2396 24.2773 93.0287 25.4375 92.6068 26.5508C92.1849 27.6641 91.5638 28.6484 90.7435 29.5039C89.9232 30.3594 88.9154 31.0449 87.7201 31.5605C86.5365 32.0645 85.1712 32.3164 83.6244 32.3164C82.3119 32.3164 81.0755 32.0996 79.9154 31.666C78.7552 31.2324 77.7416 30.6113 76.8744 29.8027C76.0072 28.9941 75.3216 28.0156 74.8177 26.8672C74.3138 25.707 74.0619 24.4062 74.0619 22.9648ZM84.0287 31.0332C84.8607 31.0332 85.6224 30.8691 86.3138 30.541C87.017 30.2129 87.6205 29.7383 88.1244 29.1172C88.6283 28.4961 89.0209 27.7402 89.3021 26.8496C89.5834 25.959 89.724 24.9512 89.724 23.8262C89.724 22.5605 89.5892 21.3887 89.3197 20.3105C89.0502 19.2207 88.6459 18.2832 88.1068 17.498C87.5795 16.7012 86.9115 16.0801 86.1029 15.6348C85.2943 15.1895 84.3509 14.9668 83.2728 14.9668C82.4408 14.9668 81.6791 15.1309 80.9877 15.459C80.2962 15.7754 79.6927 16.2383 79.1771 16.8477C78.6732 17.457 78.2806 18.207 77.9994 19.0977C77.7181 19.9766 77.5775 20.9785 77.5775 22.1035C77.5775 23.3691 77.7123 24.5469 77.9818 25.6367C78.263 26.7266 78.6732 27.6758 79.2123 28.4844C79.7513 29.2812 80.4193 29.9082 81.2162 30.3652C82.0248 30.8105 82.9623 31.0332 84.0287 31.0332ZM108.928 20.1523C108.928 18.6055 108.618 17.4688 107.997 16.7422C107.376 16.0156 106.544 15.6523 105.501 15.6523C105.126 15.6523 104.704 15.7344 104.235 15.8984C103.766 16.0508 103.286 16.2617 102.794 16.5312C102.301 16.7891 101.809 17.0938 101.317 17.4453C100.825 17.7969 100.362 18.1719 99.9284 18.5703L99.8933 20.873V25.127C99.8933 26.123 99.905 26.9961 99.9284 27.7461C99.9519 28.4844 99.987 29.123 100.034 29.6621C100.081 30.2012 100.134 30.6523 100.192 31.0156C100.251 31.3789 100.315 31.6836 100.385 31.9297V32H96.3249V31.9297C96.3952 31.6836 96.4597 31.3789 96.5183 31.0156C96.5886 30.6523 96.6413 30.2012 96.6765 29.6621C96.7234 29.123 96.7585 28.4844 96.782 27.7461C96.8171 26.9961 96.8347 26.123 96.8347 25.127V20.873C96.8347 19.877 96.8171 19.0098 96.782 18.2715C96.7585 17.5215 96.7234 16.877 96.6765 16.3379C96.6413 15.7988 96.5886 15.3477 96.5183 14.9844C96.4597 14.6211 96.3952 14.3164 96.3249 14.0703V14H100.385V14.0703C100.292 14.3633 100.216 14.7383 100.157 15.1953C100.11 15.6406 100.057 16.2266 99.9987 16.9531C100.479 16.5547 100.995 16.1562 101.546 15.7578C102.108 15.3594 102.688 15.0078 103.286 14.7031C103.884 14.3867 104.493 14.1348 105.114 13.9473C105.735 13.748 106.344 13.6484 106.942 13.6484C107.856 13.6484 108.63 13.8066 109.262 14.123C109.907 14.4395 110.428 14.8555 110.827 15.3711C111.237 15.8867 111.53 16.4785 111.706 17.1465C111.893 17.8027 111.987 18.4707 111.987 19.1504V25.127C111.987 26.123 111.999 26.9961 112.022 27.7461C112.046 28.4844 112.081 29.123 112.128 29.6621C112.175 30.2012 112.227 30.6523 112.286 31.0156C112.344 31.3789 112.409 31.6836 112.479 31.9297V32H108.419V31.9297C108.489 31.6836 108.553 31.3789 108.612 31.0156C108.682 30.6523 108.735 30.2012 108.77 29.6621C108.817 29.123 108.852 28.4844 108.876 27.7461C108.911 26.9961 108.928 26.123 108.928 25.127V20.1523ZM123.738 40.0332C124.688 40.0332 125.49 39.9277 126.147 39.7168C126.803 39.5176 127.342 39.2363 127.764 38.873C128.197 38.5098 128.525 38.0703 128.748 37.5547C128.982 37.0508 129.152 36.4941 129.258 35.8848C129.375 35.2754 129.44 34.625 129.451 33.9336C129.475 33.2422 129.486 32.5273 129.486 31.7891V31.209C128.912 31.5137 128.221 31.7773 127.412 32C126.604 32.2109 125.69 32.3164 124.67 32.3164C123.275 32.3164 122.01 32.0996 120.873 31.666C119.736 31.2324 118.764 30.6113 117.955 29.8027C117.158 28.9941 116.543 28.0156 116.109 26.8672C115.676 25.707 115.459 24.4062 115.459 22.9648C115.459 21.6406 115.67 20.4102 116.092 19.2734C116.525 18.1367 117.129 17.1523 117.902 16.3203C118.688 15.4883 119.619 14.8379 120.697 14.3691C121.787 13.8887 122.988 13.6484 124.301 13.6484C124.863 13.6484 125.379 13.6953 125.848 13.7891C126.316 13.8828 126.75 14.0117 127.149 14.1758C127.559 14.3281 127.94 14.5098 128.291 14.7207C128.654 14.9199 129.006 15.1367 129.346 15.3711L129.17 14.0703V14H133.055V14.0703C132.984 14.3164 132.914 14.6211 132.844 14.9844C132.785 15.3477 132.732 15.7988 132.686 16.3379C132.65 16.877 132.615 17.5215 132.58 18.2715C132.557 19.0098 132.545 19.877 132.545 20.873V32.8262C132.545 33.9043 132.399 34.9531 132.106 35.9727C131.824 37.0039 131.338 37.918 130.647 38.7148C129.967 39.5117 129.065 40.1504 127.94 40.6309C126.815 41.1113 125.414 41.3516 123.738 41.3516C123.152 41.3516 122.561 41.293 121.963 41.1758C121.365 41.0703 120.797 40.9355 120.258 40.7715C119.719 40.6191 119.232 40.4492 118.799 40.2617C118.365 40.0742 118.02 39.9102 117.762 39.7695L117.217 36.3945L117.498 36.3242C117.779 36.9336 118.16 37.4668 118.641 37.9238C119.133 38.3926 119.666 38.7793 120.24 39.084C120.815 39.4004 121.406 39.6348 122.016 39.7871C122.637 39.9512 123.211 40.0332 123.738 40.0332ZM125.461 31.0332C126.305 31.0332 127.066 30.8926 127.746 30.6113C128.438 30.3301 129.018 30.002 129.486 29.627V20.873C129.486 20.2168 129.481 19.625 129.469 19.0977C129.457 18.5586 129.451 18.0723 129.451 17.6387C129.17 17.2051 128.842 16.8242 128.467 16.4961C128.104 16.1562 127.711 15.875 127.289 15.6523C126.879 15.418 126.457 15.2422 126.024 15.125C125.59 14.9961 125.162 14.9316 124.74 14.9316C123.85 14.9316 123.047 15.0957 122.332 15.4238C121.617 15.752 121.008 16.2266 120.504 16.8477C120.012 17.457 119.631 18.207 119.361 19.0977C119.104 19.9766 118.975 20.9785 118.975 22.1035C118.975 23.3691 119.115 24.5469 119.397 25.6367C119.678 26.7266 120.088 27.6758 120.627 28.4844C121.178 29.2812 121.857 29.9082 122.666 30.3652C123.475 30.8105 124.406 31.0332 125.461 31.0332ZM136.122 22.9648C136.122 21.6406 136.369 20.416 136.861 19.291C137.353 18.1543 138.027 17.1699 138.882 16.3379C139.749 15.5059 140.769 14.8555 141.941 14.3867C143.113 13.918 144.372 13.6836 145.72 13.6836C147.044 13.6836 148.287 13.9063 149.447 14.3516C150.619 14.7852 151.638 15.4062 152.505 16.2148C153.372 17.0234 154.052 18.0078 154.544 19.168C155.048 20.3281 155.3 21.6289 155.3 23.0703C155.3 24.2773 155.089 25.4375 154.667 26.5508C154.246 27.6641 153.624 28.6484 152.804 29.5039C151.984 30.3594 150.976 31.0449 149.781 31.5605C148.597 32.0645 147.232 32.3164 145.685 32.3164C144.372 32.3164 143.136 32.0996 141.976 31.666C140.816 31.2324 139.802 30.6113 138.935 29.8027C138.068 28.9941 137.382 28.0156 136.878 26.8672C136.374 25.707 136.122 24.4062 136.122 22.9648ZM146.089 31.0332C146.921 31.0332 147.683 30.8691 148.374 30.541C149.078 30.2129 149.681 29.7383 150.185 29.1172C150.689 28.4961 151.081 27.7402 151.363 26.8496C151.644 25.959 151.785 24.9512 151.785 23.8262C151.785 22.5605 151.65 21.3887 151.38 20.3105C151.111 19.2207 150.706 18.2832 150.167 17.498C149.64 16.7012 148.972 16.0801 148.164 15.6348C147.355 15.1895 146.412 14.9668 145.333 14.9668C144.501 14.9668 143.74 15.1309 143.048 15.459C142.357 15.7754 141.753 16.2383 141.238 16.8477C140.734 17.457 140.341 18.207 140.06 19.0977C139.779 19.9766 139.638 20.9785 139.638 22.1035C139.638 23.3691 139.773 24.5469 140.042 25.6367C140.324 26.7266 140.734 27.6758 141.273 28.4844C141.812 29.2812 142.48 29.9082 143.277 30.3652C144.085 30.8105 145.023 31.0332 146.089 31.0332Z" fill="#322E2A"></path>
<path d="M19.3128 1.00733C18.0431 1.04925 16.7802 1.21204 15.5414 1.4935V18.0277C15.5415 18.1478 15.5099 18.2658 15.4499 18.3698C15.3899 18.4739 15.3035 18.5603 15.1995 18.6203L3.90185 25.1551C2.15999 19.5456 4.16526 11.7712 10.402 7.38401V15.4497L9.03394 16.2318V10.3357C7.42134 11.9953 6.20652 13.9994 5.48104 16.1968C4.75557 18.3943 4.53835 20.7277 4.84578 23.0213L14.1734 17.6326V1.85719C2.07212 5.5381 -3.52845 19.3844 2.34794 30.403L19.313 20.6021L19.3128 1.00733Z" fill="url(#paint0_linear_7_55)"></path>
<path d="M3.03957 31.5852C3.71074 32.6645 4.48312 33.6775 5.34625 34.6104L19.6552 26.343C19.7592 26.2829 19.8772 26.2513 19.9973 26.2513C20.1173 26.2513 20.2353 26.2829 20.3393 26.343L31.6436 32.8665C27.6597 37.1807 19.9291 39.3306 13.0138 36.1188L19.9941 32.0864L21.3549 32.8806L16.252 35.8286C18.4941 36.3962 20.8358 36.4468 23.1003 35.9767C25.3648 35.5066 27.4929 34.528 29.3237 33.1148L19.9961 27.7263L6.34437 35.614C15.5803 44.2612 30.364 42.1916 36.9625 31.5889L19.998 21.7865L3.03957 31.5852Z" fill="url(#paint1_linear_7_55)"></path>
<path d="M37.6398 30.3991C38.2382 29.2777 38.7287 28.102 39.1047 26.8879L24.7952 18.6209C24.6912 18.5608 24.6049 18.4744 24.5448 18.3704C24.4848 18.2663 24.4532 18.1484 24.4532 18.0282L24.4468 4.97084C30.1723 6.26605 35.898 11.8907 36.5766 19.4896L29.5956 15.4559L29.6026 13.8796L34.7047 16.8275C34.0755 14.6011 32.9488 12.5467 31.4097 10.8193C29.8706 9.09186 27.9592 7.73659 25.8199 6.8557V17.6333L39.4726 25.5208C42.3373 13.1936 33.1548 1.41675 20.6804 1V20.6021L37.6398 30.3991Z" fill="url(#paint2_linear_7_55)"></path>
<defs>
<linearGradient id="paint0_linear_7_55" x1="5.55259" y1="11.2958" x2="20.3981" y2="18.1234" gradientUnits="userSpaceOnUse">
<stop stop-color="#D3A478"></stop>
<stop offset="1" stop-color="#925F30"></stop>
</linearGradient>
<linearGradient id="paint1_linear_7_55" x1="12.7926" y1="28.5112" x2="25.2916" y2="43.959" gradientUnits="userSpaceOnUse">
<stop stop-color="#D3A478"></stop>
<stop offset="1" stop-color="#925F30"></stop>
</linearGradient>
<linearGradient id="paint2_linear_7_55" x1="26.2347" y1="11.2897" x2="41.0837" y2="18.1201" gradientUnits="userSpaceOnUse">
<stop stop-color="#D3A478"></stop>
<stop offset="1" stop-color="#925F30"></stop>
</linearGradient>
</defs>
</svg>
