<svg width="80" height="80" viewBox="0 0 80 80" fill="none" xmlns="http://www.w3.org/2000/svg"><rect width="80" height="80" rx="40" fill="#060508"></rect><mask id="path-2-inside-1_2814_2074" fill="white"><path d="M20.5876 43.5443L17.5 33.4906L22.582 27.1627L35.4508 21.875L54.5492 26.1225L60.9426 36.3512L62.4891 46.5945C62.4958 46.639 62.4781 46.6837 62.4428 46.7115L56.7623 51.1741V55.3344C56.7623 55.3868 56.7296 55.4336 56.6805 55.4517L49.4672 58.1088L44.3397 57.5988L44.0757 57.5726C44.0398 57.569 44.0073 57.5502 43.9863 57.5209L38.6475 50.0472L31.1885 51.1741L26.0979 47.8414C26.0539 47.8126 26.0327 47.7593 26.0448 47.7081L27.0082 43.6326H20.7071C20.6522 43.6326 20.6038 43.5968 20.5876 43.5443Z"></path></mask><path d="M22.582 27.1627L22.753 26.5616L22.21 27.665L22.582 27.1627ZM35.4508 21.875L35.7591 21.3313L34.6779 20.7182L34.8306 21.9517L35.4508 21.875ZM54.5492 26.1225L55.1718 26.0675L55.015 24.2926L54.0287 25.7765L54.5492 26.1225ZM60.9426 36.3512L61.4 36.7771L62.1513 35.9703L61.0732 35.74L60.9426 36.3512ZM56.7623 51.1741L57.1929 51.6271L57.4114 51.4194L57.3849 51.1191L56.7623 51.1741ZM49.4672 58.1088L49.0052 58.5297L49.4352 59.0015L49.8978 58.5618L49.4672 58.1088ZM44.2299 57.4479L44.8406 57.5807L44.8406 57.5807L44.2299 57.4479ZM38.6475 50.0472L38.1613 50.4398L38.2451 50.5437L38.3642 50.6042L38.6475 50.0472ZM27.0082 43.6326L26.5522 44.0601L26.7374 44.2576H27.0082V43.6326ZM46.7623 28.2896L47.3279 28.0238L47.2434 27.8439L47.0706 27.7459L46.7623 28.2896ZM44.0193 41.9652L43.4987 41.6192L43.4987 41.6192L44.0193 41.9652ZM49.9292 57.6878L45.5849 52.9202L44.661 53.7621L49.0052 58.5297L49.9292 57.6878ZM44.5122 53.2084L43.6192 57.3151L44.8406 57.5807L45.7337 53.474L44.5122 53.2084ZM27.4642 43.2051L17.956 33.0631L17.044 33.9181L26.5522 44.0601L27.4642 43.2051ZM37.2186 31.0734L36.0711 21.7983L34.8306 21.9517L35.9781 31.2269L37.2186 31.0734ZM27.5038 44.0134L33.9639 35.6051L32.9726 34.8435L26.5126 43.2518L27.5038 44.0134ZM33.9639 35.6051L37.094 31.5309L36.1027 30.7694L32.9726 34.8435L33.9639 35.6051ZM33.8402 34.722L22.9539 26.6604L22.21 27.665L33.0963 35.7266L33.8402 34.722ZM22.411 27.7638L36.4273 31.7513L36.7694 30.549L22.753 26.5616L22.411 27.7638ZM38.3642 50.6042L44.8396 53.8982L45.4063 52.7841L38.9309 49.4901L38.3642 50.6042ZM27.0082 44.2576H33.4682V43.0076H27.0082V44.2576ZM34.0932 43.6326V35.2243H32.8432V43.6326H34.0932ZM32.87 43.4517L30.5903 50.9932L31.7868 51.3549L34.0665 43.8134L32.87 43.4517ZM32.982 44.0252L38.1613 50.4398L39.1338 49.6545L33.9545 43.24L32.982 44.0252ZM39.2686 49.9767L37.8812 37.7502L36.6392 37.8912L38.0265 50.1176L39.2686 49.9767ZM57.1154 50.6584L51.2398 46.6353L50.5336 47.6667L56.4092 51.6898L57.1154 50.6584ZM51.2398 46.6353L44.4226 41.9674L43.7164 42.9988L50.5336 47.6667L51.2398 46.6353ZM44.4226 41.9674L44.1515 41.7818L43.4453 42.8132L43.7164 42.9988L44.4226 41.9674ZM44.1515 41.7818L37.6133 37.305L36.9071 38.3364L43.4453 42.8132L44.1515 41.7818ZM37.6133 37.305L33.8213 34.7086L33.1151 35.74L36.9071 38.3364L37.6133 37.305ZM33.9917 43.9741L37.7836 38.1622L36.7368 37.4792L32.9448 43.2911L33.9917 43.9741ZM37.8821 37.759L37.2203 31.0884L35.9764 31.2119L36.6382 37.8824L37.8821 37.759ZM36.7677 31.7518L46.9316 28.8912L46.593 27.688L36.429 30.5485L36.7677 31.7518ZM54.0287 25.7765L48.8705 33.5373L49.9115 34.2292L55.0697 26.4685L54.0287 25.7765ZM36.4678 31.7614L49.2604 34.4944L49.5216 33.272L36.7289 30.5389L36.4678 31.7614ZM49.2604 34.4944L55.2166 35.7669L55.4778 34.5445L49.5216 33.272L49.2604 34.4944ZM55.2166 35.7669L60.812 36.9624L61.0732 35.74L55.4778 34.5445L55.2166 35.7669ZM46.1966 28.5554L48.8253 34.149L49.9566 33.6174L47.3279 28.0238L46.1966 28.5554ZM47.0706 27.7459L35.7591 21.3313L35.1425 22.4187L46.454 28.8333L47.0706 27.7459ZM48.8705 33.5373L43.4987 41.6192L44.5398 42.3112L49.9115 34.2292L48.8705 33.5373ZM43.4987 41.6192L43.2779 41.9515L44.3189 42.6435L44.5398 42.3112L43.4987 41.6192ZM43.2779 41.9515L38.127 49.7012L39.1681 50.3931L44.3189 42.6435L43.2779 41.9515ZM44.1854 42.5677L51.0268 40.6811L50.6945 39.4761L43.8531 41.3627L44.1854 42.5677ZM51.4688 39.9343L49.9991 33.739L48.7829 34.0275L50.2525 40.2228L51.4688 39.9343ZM60.4852 35.9253L55.4711 41.3103L56.3859 42.1621L61.4 36.7771L60.4852 35.9253ZM55.4711 41.3103L50.4293 46.7251L51.3441 47.5769L56.3859 42.1621L55.4711 41.3103ZM50.4293 46.7251L44.6655 52.9152L45.5804 53.7671L51.3441 47.5769L50.4293 46.7251ZM57.3849 51.1191L56.5511 41.6812L55.306 41.7912L56.1397 51.2291L57.3849 51.1191ZM56.5511 41.6812L55.9698 35.1007L54.7246 35.2107L55.306 41.7912L56.5511 41.6812ZM55.9698 35.1007L55.1718 26.0675L53.9266 26.1775L54.7246 35.2107L55.9698 35.1007ZM50.6664 40.6726L55.7342 42.3302L56.1228 41.1422L51.055 39.4845L50.6664 40.6726ZM43.3972 42.0256L43.4474 42.5435L44.6916 42.4228L44.6413 41.9048L43.3972 42.0256ZM43.4474 42.5435L44.5009 53.4015L45.745 53.2808L44.6916 42.4228L43.4474 42.5435ZM56.3317 50.7211L49.0366 57.6558L49.8978 58.5618L57.1929 51.6271L56.3317 50.7211ZM43.6192 57.3151C43.5239 57.7532 43.8317 58.1764 44.2779 58.2208L44.4015 56.9769C44.6989 57.0065 44.9042 57.2887 44.8406 57.5807L43.6192 57.3151ZM20.5876 43.5443L21.7826 43.1773L21.7826 43.1773L20.5876 43.5443ZM17.5 33.4906L16.5254 32.7079L16.1106 33.2244L16.3051 33.8576L17.5 33.4906ZM22.582 27.1627L22.1069 26.0065L21.809 26.1289L21.6074 26.38L22.582 27.1627ZM35.4508 21.875L35.7222 20.6548L35.3389 20.5696L34.9757 20.7188L35.4508 21.875ZM54.5492 26.1225L55.6092 25.46L55.3316 25.016L54.8206 24.9023L54.5492 26.1225ZM60.9426 36.3512L62.1786 36.1646L62.1399 35.9084L62.0026 35.6886L60.9426 36.3512ZM62.4891 46.5945L61.2531 46.7811L61.2531 46.7812L62.4891 46.5945ZM62.4428 46.7115L61.6706 45.7285L61.6705 45.7285L62.4428 46.7115ZM56.7623 51.1741L55.9901 50.1911L55.5123 50.5665V51.1741H56.7623ZM56.6805 55.4517L57.1126 56.6246L57.1126 56.6246L56.6805 55.4517ZM49.4672 58.1088L49.3435 59.3526L49.6296 59.3811L49.8993 59.2817L49.4672 58.1088ZM44.3397 57.5988L44.4634 56.355L44.4634 56.355L44.3397 57.5988ZM38.6475 50.0472L39.6647 49.3206L39.219 48.6967L38.4608 48.8112L38.6475 50.0472ZM31.1885 51.1741L30.5039 52.2199L30.9032 52.4814L31.3753 52.41L31.1885 51.1741ZM26.0979 47.8414L25.4132 48.8872L25.4133 48.8872L26.0979 47.8414ZM26.0448 47.7081L27.2612 47.9957L27.2612 47.9957L26.0448 47.7081ZM27.0082 43.6326L28.2247 43.9202L28.5881 42.3826H27.0082V43.6326ZM44.0757 57.5726L43.9519 58.8165L43.952 58.8165L44.0757 57.5726ZM43.9863 57.5209L45.0035 56.7943L45.0035 56.7943L43.9863 57.5209ZM21.7826 43.1773L18.6949 33.1236L16.3051 33.8576L19.3927 43.9113L21.7826 43.1773ZM18.4746 34.2733L23.5566 27.9454L21.6074 26.38L16.5254 32.7079L18.4746 34.2733ZM23.057 28.3189L35.9259 23.0312L34.9757 20.7188L22.1069 26.0065L23.057 28.3189ZM35.1794 23.0952L54.2778 27.3427L54.8206 24.9023L35.7222 20.6548L35.1794 23.0952ZM53.4892 26.785L59.8826 37.0137L62.0026 35.6886L55.6092 25.46L53.4892 26.785ZM59.7066 36.5378L61.2531 46.7811L63.7251 46.4079L62.1786 36.1646L59.7066 36.5378ZM61.6705 45.7285L55.9901 50.1911L57.5345 52.157L63.215 47.6944L61.6705 45.7285ZM55.5123 51.1741V55.3344H58.0123V51.1741H55.5123ZM56.2484 54.2787L49.0351 56.9358L49.8993 59.2817L57.1126 56.6246L56.2484 54.2787ZM44.216 58.8427L49.3435 59.3526L49.5909 56.8649L44.4634 56.355L44.216 58.8427ZM38.4608 48.8112L31.0018 49.9381L31.3753 52.41L38.8343 51.2832L38.4608 48.8112ZM31.8732 50.1283L26.7826 46.7956L25.4133 48.8872L30.5039 52.2199L31.8732 50.1283ZM27.2612 47.9957L28.2247 43.9202L25.7917 43.345L24.8283 47.4205L27.2612 47.9957ZM27.0082 42.3826H20.7071V44.8826H27.0082V42.3826ZM44.4634 56.355L44.1993 56.3287L43.952 58.8165L44.216 58.8427L44.4634 56.355ZM45.0035 56.7943L39.6647 49.3206L37.6304 50.7738L42.9692 58.2474L45.0035 56.7943ZM44.1994 56.3287C44.522 56.3608 44.815 56.5305 45.0035 56.7943L42.9691 58.2474C43.1995 58.5699 43.5577 58.7772 43.9519 58.8165L44.1994 56.3287ZM26.7826 46.7956C27.1788 47.055 27.3702 47.5348 27.2612 47.9957L24.8283 47.4205C24.6951 47.9838 24.929 48.5702 25.4132 48.8872L26.7826 46.7956ZM55.5123 55.3344C55.5123 54.863 55.8062 54.4417 56.2484 54.2788L57.1126 56.6246C57.6531 56.4255 58.0123 55.9106 58.0123 55.3344H55.5123ZM19.3927 43.9113C19.57 44.4885 20.1032 44.8826 20.7071 44.8826V42.3826C21.2012 42.3826 21.6375 42.705 21.7826 43.1773L19.3927 43.9113ZM61.2531 46.7812C61.1927 46.3807 61.3521 45.9787 61.6706 45.7285L63.2149 47.6945C63.6042 47.3887 63.799 46.8973 63.7251 46.4079L61.2531 46.7812Z" fill="white" mask="url(#path-2-inside-1_2814_2074)"></path></svg>